<?xml version="1.0" encoding="utf-8"?>
<!-- Generator: Adobe Illustrator 16.0.0, SVG Export Plug-In . SVG Version: 6.00 Build 0)  -->
<!DOCTYPE svg PUBLIC "-//W3C//DTD SVG 1.1//EN" "http://www.w3.org/Graphics/SVG/1.1/DTD/svg11.dtd">
<svg version="1.1" xmlns="http://www.w3.org/2000/svg" xmlns:xlink="http://www.w3.org/1999/xlink" x="0px" y="0px" width="64px"
	 height="64px" viewBox="0 0 64 64" enable-background="new 0 0 64 64" xml:space="preserve">
<g id="Layer_3" display="none">
	<rect x="-102.001" y="-208.866" display="inline" width="654" height="382"/>
</g>
<g id="Layer_4">
	<circle fill="#FFFFFF" cx="32.906" cy="19.582" r="9.5"/>
</g>
<g id="Layer_1">
	<g>
		<path fill="#F59B1E" d="M32.882,29.789c-5.747,0-10.421-4.678-10.421-10.428c0-5.748,4.674-10.424,10.421-10.424
			s10.422,4.676,10.422,10.424C43.304,25.111,38.629,29.789,32.882,29.789z M32.882,10.938c-4.644,0-8.421,3.779-8.421,8.424
			c0,4.646,3.777,8.428,8.421,8.428s8.422-3.781,8.422-8.428C41.304,14.717,37.525,10.938,32.882,10.938z"/>
		<g>
			<path fill="#F1F0F1" d="M50.594,55.925v-7.133c0-9.036-7.395-16.431-16.43-16.431h-2.566c-9.036,0-16.427,7.395-16.427,16.431
				v7.133c0,0.004,0,0.009,0,0.014h35.423C50.594,55.934,50.594,55.929,50.594,55.925z"/>
			<path fill="#B3B1B2" d="M50.594,56.938H15.171c-0.552,0-1-0.447-1-1v-7.146c0-9.61,7.817-17.43,17.427-17.43h2.566
				c9.61,0,17.43,7.819,17.43,17.43v7.133C51.594,56.477,51.146,56.938,50.594,56.938z M16.171,54.938h33.423v-6.146
				c0-8.508-6.922-15.43-15.43-15.43h-2.566c-8.506,0-15.427,6.922-15.427,15.43V54.938z"/>
		</g>
		<path fill="#B3B1B2" d="M22.149,46.666c-0.046,0-0.091-0.002-0.138-0.01c-0.547-0.074-0.93-0.578-0.854-1.127
			c1.04-7.561,3.399-12.424,3.499-12.628c0.244-0.495,0.843-0.698,1.338-0.456c0.495,0.243,0.7,0.842,0.457,1.338
			c-0.022,0.047-2.319,4.8-3.313,12.02C23.07,46.303,22.641,46.666,22.149,46.666z"/>
		<path fill="#83AA8E" d="M40.682,41.472c-0.059,0-0.117-0.005-0.176-0.015c-0.544-0.098-0.906-0.616-0.81-1.16
			c0.263-1.481-0.605-5.339-0.962-6.7c-0.141-0.534,0.18-1.081,0.713-1.221c0.539-0.14,1.082,0.18,1.221,0.713
			c0.143,0.544,1.384,5.38,0.997,7.558C41.579,41.131,41.158,41.472,40.682,41.472z"/>
		<path fill="#83AA8E" d="M35.24,52.028c-0.193,0-0.389-0.056-0.561-0.173c-2.467-1.678-2.255-3.984-2.244-4.083
			c0.258-4.807,7.375-7.877,7.678-8.005c0.512-0.214,1.096,0.022,1.311,0.531c0.216,0.507-0.021,1.094-0.529,1.311
			c-1.744,0.741-6.305,3.323-6.467,6.321c-0.006,0.085-0.068,1.289,1.377,2.271c0.456,0.311,0.574,0.933,0.264,1.39
			C35.875,51.875,35.561,52.028,35.24,52.028z"/>
		<path fill="#83AA8E" d="M42.813,53.049c-0.416,0-0.805-0.262-0.946-0.678c-0.179-0.522,0.101-1.091,0.623-1.27
			c1.655-0.565,1.918-1.743,1.929-1.793c0.654-2.965-3.052-6.66-4.535-7.836c-0.432-0.343-0.506-0.972-0.162-1.404
			c0.342-0.435,0.971-0.507,1.403-0.164c0.258,0.204,6.305,5.049,5.253,9.805c-0.007,0.047-0.422,2.321-3.241,3.285
			C43.029,53.03,42.92,53.049,42.813,53.049z"/>
		<path fill="#DE5740" d="M22.148,53.252c-2.268,0-4.111-1.843-4.111-4.107c0-2.268,1.844-4.111,4.111-4.111
			c2.266,0,4.108,1.844,4.108,4.111C26.257,51.409,24.414,53.252,22.148,53.252z M22.148,47.033c-1.164,0-2.111,0.946-2.111,2.111
			c0,1.161,0.947,2.107,2.111,2.107c1.162,0,2.108-0.946,2.108-2.107C24.257,47.979,23.311,47.033,22.148,47.033z"/>
	</g>
	<g id="Layer_2">
	</g>
</g>
</svg>
