<?xml version="1.0" encoding="utf-8"?>
<!-- Generator: Adobe Illustrator 16.0.0, SVG Export Plug-In . SVG Version: 6.00 Build 0)  -->
<!DOCTYPE svg PUBLIC "-//W3C//DTD SVG 1.1//EN" "http://www.w3.org/Graphics/SVG/1.1/DTD/svg11.dtd">
<svg version="1.1" xmlns="http://www.w3.org/2000/svg" xmlns:xlink="http://www.w3.org/1999/xlink" x="0px" y="0px" width="64px"
	 height="64px" viewBox="0 0 64 64" enable-background="new 0 0 64 64" xml:space="preserve">
<g id="Layer_3" display="none">
	<rect x="-284.668" y="-9" display="inline" width="654" height="382"/>
</g>
<g id="Layer_4">
	<circle fill="#FFFFFF" cx="19.464" cy="15.004" r="5.996"/>
	<circle fill="#FFFFFF" cx="44.102" cy="39.875" r="5.625"/>
	<polygon fill="#FFFFFF" points="14.009,18.781 10.292,23.188 8.229,28.938 9.917,31 24.292,31 30.167,30.25 29.479,26.563 
		26.143,20.375 18.229,17.804 	"/>
	<polygon fill="#FFFFFF" points="39.919,43.906 36.917,46.492 34.042,51.125 33.479,54.688 34.479,55.5 44.3,55.5 52.729,55.125 
		54.604,55.5 54.167,51.25 51.029,45.5 44.3,43.188 	"/>
</g>
<g id="Layer_1">
	<g>
		<path fill="#B3B1B2" d="M19.412,21.514c-3.71,0-6.729-3.02-6.729-6.73c0-3.71,3.02-6.729,6.729-6.729
			c3.712,0,6.73,3.019,6.73,6.729C26.143,18.494,23.124,21.514,19.412,21.514z M19.412,10.055c-2.608,0-4.729,2.121-4.729,4.729
			c0,2.608,2.121,4.73,4.729,4.73s4.73-2.122,4.73-4.73C24.143,12.176,22.021,10.055,19.412,10.055z"/>
		<g>
			<path fill="#B3B1B2" d="M19.412,31.574H7.606v-1c0-7.896,6.158-12.395,6.42-12.583c0.449-0.321,1.07-0.219,1.393,0.23
				c0.322,0.447,0.221,1.072-0.227,1.395c-0.053,0.039-5.05,3.717-5.547,9.958h9.767c0.552,0,1,0.447,1,1
				S19.964,31.574,19.412,31.574z"/>
			<path fill="#B3B1B2" d="M31.219,31.574H19.412c-0.552,0-1-0.447-1-1s0.448-1,1-1h9.767c-0.496-6.241-5.494-9.919-5.547-9.957
				c-0.447-0.323-0.549-0.947-0.227-1.396c0.322-0.449,0.943-0.552,1.393-0.23c0.262,0.188,6.421,4.688,6.421,12.583V31.574z"/>
		</g>
		<path fill="#B3B1B2" d="M44.301,46.492c-3.71,0-6.729-3.019-6.729-6.729c0-3.711,3.02-6.73,6.729-6.73s6.729,3.02,6.729,6.73
			C51.029,43.474,48.011,46.492,44.301,46.492z M44.301,35.033c-2.608,0-4.729,2.122-4.729,4.73c0,2.607,2.121,4.729,4.729,4.729
			c2.607,0,4.729-2.121,4.729-4.729C49.029,37.155,46.908,35.033,44.301,35.033z"/>
		<g>
			<path fill="#B3B1B2" d="M44.301,56.555H32.494v-1c0-7.897,6.157-12.396,6.42-12.583c0.449-0.319,1.071-0.217,1.394,0.23
				c0.322,0.448,0.219,1.072-0.229,1.396c-0.053,0.038-5.049,3.715-5.545,9.957h9.767c0.552,0,1,0.447,1,1
				S44.853,56.555,44.301,56.555z"/>
			<path fill="#B3B1B2" d="M56.106,56.555H44.301c-0.552,0-1-0.447-1-1s0.448-1,1-1h9.767c-0.494-6.271-5.492-9.918-5.545-9.956
				c-0.449-0.321-0.553-0.946-0.23-1.396c0.32-0.448,0.945-0.553,1.395-0.231c0.262,0.188,6.42,4.686,6.42,12.583V56.555z"/>
		</g>
		<path fill="#F59B1E" d="M47.98,30.744c-0.552,0-1-0.447-1-1c0-8.341-6.784-15.127-15.124-15.127c-0.553,0-1-0.447-1-1s0.447-1,1-1
			c9.442,0,17.124,7.684,17.124,17.127C48.98,30.297,48.532,30.744,47.98,30.744z"/>
		<path fill="#F59B1E" d="M48.136,31.678l-4.86-3.736c-0.438-0.337-0.521-0.965-0.184-1.402s0.964-0.521,1.402-0.184l3.331,2.561
			l2.859-3.454c0.353-0.426,0.982-0.485,1.408-0.133s0.484,0.982,0.133,1.408L48.136,31.678z"/>
		<path fill="#83AA8E" d="M30.219,52.969c-9.442,0-17.125-7.683-17.125-17.125c0-0.553,0.448-1,1-1s1,0.447,1,1
			c0,8.34,6.785,15.125,15.125,15.125c0.552,0,1,0.447,1,1S30.771,52.969,30.219,52.969z"/>
		<path fill="#83AA8E" d="M10.524,40.459c-0.225,0-0.45-0.075-0.637-0.229c-0.426-0.353-0.484-0.982-0.133-1.408l4.09-4.94
			l4.86,3.736c0.438,0.337,0.521,0.965,0.184,1.402c-0.337,0.437-0.966,0.519-1.402,0.184l-3.331-2.561l-2.859,3.454
			C11.099,40.336,10.813,40.459,10.524,40.459z"/>
	</g>
	<g id="Layer_2">
	</g>
</g>
</svg>
