<?xml version="1.0" encoding="utf-8"?>
<!-- Generator: Adobe Illustrator 16.0.0, SVG Export Plug-In . SVG Version: 6.00 Build 0)  -->
<!DOCTYPE svg PUBLIC "-//W3C//DTD SVG 1.1//EN" "http://www.w3.org/Graphics/SVG/1.1/DTD/svg11.dtd">
<svg version="1.1" xmlns="http://www.w3.org/2000/svg" xmlns:xlink="http://www.w3.org/1999/xlink" x="0px" y="0px" width="64px"
	 height="64px" viewBox="0 0 64 64" enable-background="new 0 0 64 64" xml:space="preserve">
<g id="Layer_3" display="none">
	<rect x="-284.668" y="-298.366" display="inline" width="654" height="382"/>
</g>
<g id="Layer_4">
	<circle fill="#FFFFFF" cx="32.53" cy="13.918" r="5.271"/>
	<polygon fill="#FFFFFF" points="18.875,41.227 18.71,43.544 22.261,45.049 27.913,44.758 32.066,45.138 34.366,46.332 
		36.411,48.144 33.411,49.859 27.254,50.7 21.553,49.643 17.917,47.968 16.114,44.713 15.25,40.551 13.976,38.93 11.417,38.218 
		9.921,38.218 8.948,40.524 9.799,43.783 12.476,48.863 15.644,52.142 21.291,55.033 28.594,55.805 34.995,54.781 42.332,53.801 
		47.369,52.507 54.82,52.088 55.927,51.301 55.927,42.765 44.997,38.968 32.53,39.801 20.979,39.987 	"/>
</g>
<g id="Layer_1">
	
		<circle fill="none" stroke="#F39A20" stroke-width="2" stroke-linecap="round" stroke-linejoin="round" stroke-miterlimit="10" cx="32.426" cy="14.017" r="5.172"/>
	
		<path fill="#F1F0F1" stroke="#A8A8A9" stroke-width="2" stroke-linecap="round" stroke-linejoin="round" stroke-miterlimit="10" d="
		M32.427,21.447c-6.943,0-12.571,6.589-12.571,14.718h25.142C44.997,28.036,39.369,21.447,32.427,21.447z"/>
	<path fill="none" stroke="#82AA8D" stroke-width="2" stroke-linecap="round" stroke-linejoin="round" stroke-miterlimit="10" d="
		M55.927,42.765c-2.571-0.967-8.891-3.262-10.824-3.229c-2.448,0.044-13.629,0.002-13.629,0.002l-0.001,0.002
		c-3.229-0.016-7.101,0.195-10.493,0.447c-1.488,0.111-2.601,1.347-2.483,2.762c0.116,1.414,1.424,2.478,2.903,2.36
		c3.217-0.237,6.849-0.399,9.646-0.423c1.84,0.777,4.777,2.185,5.366,3.457c0,0-1.131,0.847-2.466,1.58
		c-5.701,1.513-10.302,1.271-13.688-0.737c-4.994-2.96-5.93-8.979-5.95-9.114c-0.191-1.402-1.533-2.398-3.017-2.218
		c-1.481,0.178-2.53,1.463-2.343,2.87c0.045,0.345,1.203,8.484,8.393,12.787c2.821,1.688,6.115,2.533,9.853,2.533
		c3.079,0,6.458-0.574,10.123-1.723c3.771-0.752,13.921-2.494,17.959-1.989c0.222,0.028,0.438,0.022,0.651-0.001V42.765z"/>
	<g id="Layer_2">
	</g>
</g>
</svg>
