<?xml version="1.0" encoding="utf-8"?>
<!-- Generator: Adobe Illustrator 16.0.0, SVG Export Plug-In . SVG Version: 6.00 Build 0)  -->
<!DOCTYPE svg PUBLIC "-//W3C//DTD SVG 1.1//EN" "http://www.w3.org/Graphics/SVG/1.1/DTD/svg11.dtd">
<svg version="1.1" id="Layer_1" xmlns="http://www.w3.org/2000/svg" xmlns:xlink="http://www.w3.org/1999/xlink" x="0px" y="0px"
	 width="26px" height="26px" viewBox="0 0 26 26" enable-background="new 0 0 26 26" xml:space="preserve">
<g>
	<path fill="none" stroke="#000000" stroke-width="0.4" stroke-miterlimit="10" d="M19.593,5.639"/>
	<path fill="none" stroke="#000000" stroke-width="0.39" stroke-miterlimit="10" d="M12.831,21.497"/>
	<g>
		<g>
			<path fill="#F16C24" d="M12.831,3.591c5.135,0,9.313,4.179,9.313,9.314c0,5.135-4.178,9.313-9.313,9.313
				c-5.136,0-9.313-4.178-9.313-9.313C3.518,7.77,7.695,3.591,12.831,3.591 M12.831,3.191c-5.357,0-9.714,4.357-9.714,9.714
				c0,5.356,4.356,9.713,9.714,9.713c5.356,0,9.713-4.356,9.713-9.713C22.544,7.548,18.188,3.191,12.831,3.191L12.831,3.191z"/>
		</g>
	</g>
	<g>
		<path fill="none" stroke="#000000" stroke-width="0.285" stroke-miterlimit="10" d="M13.012,20.34"/>
		<path fill="#F16C24" d="M12.003,17.143c0-3.142,3.85-3.672,3.85-7.148c0-2.036-1.57-3.009-3.274-3.009
			c-1.594,0-3.475,1.084-3.475,3.96v0.509H8.662v-0.486c0-2.877,1.835-4.381,3.916-4.381c2.345,0,3.718,1.482,3.718,3.43
			c0,1.527-0.485,2.456-2.168,4.094c-1.283,1.261-1.682,1.881-1.682,3.275v1.239h-0.443V17.143z"/>
		<rect x="12.003" y="19.374" fill="#F16C24" width="0.443" height="0.617"/>
	</g>
</g>
</svg>
