<?xml version="1.0" encoding="utf-8"?>
<!-- Generator: Adobe Illustrator 16.0.0, SVG Export Plug-In . SVG Version: 6.00 Build 0)  -->
<!DOCTYPE svg PUBLIC "-//W3C//DTD SVG 1.1//EN" "http://www.w3.org/Graphics/SVG/1.1/DTD/svg11.dtd">
<svg version="1.1" id="Layer_1" xmlns="http://www.w3.org/2000/svg" xmlns:xlink="http://www.w3.org/1999/xlink" x="0px" y="0px"
	 width="26px" height="26px" viewBox="0 0 26 26" enable-background="new 0 0 26 26" xml:space="preserve">
<g>
	<path fill="none" stroke="#000000" stroke-width="0.2297" stroke-miterlimit="10" d="M12.908,17.756"/>
	<path d="M13.069,10.017"/>
	<g>
		<g>
			<path fill="#F16C24" d="M19.434,15.044c0-0.713-0.58-1.293-1.295-1.293c-0.711,0-1.291,0.58-1.291,1.293
				c0,0.682,0.53,1.234,1.199,1.284v1.632c0,2.258-1.396,4.095-3.111,4.095c-1.715,0-3.11-1.836-3.11-4.095v-1.789
				c0.377-0.084,0.661-0.422,0.661-0.825v-1.122c0-0.03-0.001-0.06-0.005-0.091c1.753-0.5,2.641-7.103,2.74-7.903
				c0-1.488-1.106-2.719-2.538-2.921c-0.009-0.204-0.177-0.368-0.383-0.368c-0.214,0-0.387,0.172-0.387,0.384v0.277
				c0,0.211,0.173,0.384,0.387,0.384c0.185,0,0.336-0.131,0.374-0.301c1.23,0.194,2.176,1.258,2.176,2.522
				c-0.37,2.931-1.402,7.585-2.599,7.585h-0.276l0.104,0.256c0.023,0.057,0.034,0.118,0.034,0.177v1.122
				c0,0.262-0.212,0.476-0.475,0.476c-0.262,0-0.475-0.213-0.475-0.476v-1.122c0-0.059,0.011-0.12,0.035-0.177l0.103-0.256h-0.509
				c-1.004,0-2.114-4.639-2.581-7.577c0.007-1.221,0.867-2.244,2.016-2.501c0.048,0.157,0.192,0.272,0.366,0.272
				c0.212,0,0.384-0.173,0.384-0.384V3.325c0-0.211-0.172-0.384-0.384-0.384c-0.213,0-0.385,0.172-0.385,0.384v0.01
				C8.859,3.607,7.84,4.801,7.84,6.23l0.002,0.029c0.209,1.32,1.337,7.905,2.951,7.905h0.002c-0.002,0.02-0.004,0.039-0.004,0.06
				v1.122c0,0.402,0.283,0.741,0.661,0.825v1.789c0,2.463,1.563,4.467,3.483,4.467c1.922,0,3.483-2.004,3.483-4.467v-1.654
				C18.997,16.177,19.434,15.661,19.434,15.044L19.434,15.044z M18.139,15.964c-0.507,0-0.919-0.411-0.919-0.92
				c0-0.508,0.412-0.92,0.919-0.92c0.511,0,0.923,0.413,0.923,0.92C19.062,15.551,18.649,15.964,18.139,15.964L18.139,15.964z
				 M18.139,15.964"/>
		</g>
	</g>
</g>
</svg>
