<?xml version="1.0" encoding="utf-8"?>
<!-- Generator: Adobe Illustrator 16.0.0, SVG Export Plug-In . SVG Version: 6.00 Build 0)  -->
<!DOCTYPE svg PUBLIC "-//W3C//DTD SVG 1.1//EN" "http://www.w3.org/Graphics/SVG/1.1/DTD/svg11.dtd">
<svg version="1.1" id="Layer_1" xmlns="http://www.w3.org/2000/svg" xmlns:xlink="http://www.w3.org/1999/xlink" x="0px" y="0px"
	 width="26px" height="26px" viewBox="0 0 26 26" enable-background="new 0 0 26 26" xml:space="preserve">
<g>
	<g>
		<g>
			<path fill="#F16C24" d="M12.908,7.934c3.126,0,6.213,1.585,9.179,4.711c-2.966,3.126-6.053,4.711-9.179,4.711
				s-6.213-1.584-9.178-4.71C6.702,9.519,9.788,7.934,12.908,7.934 M12.908,7.534c-3.322,0-6.594,1.716-9.726,5.111
				c3.125,3.395,6.403,5.111,9.726,5.111s6.601-1.716,9.726-5.111C19.509,9.25,16.23,7.534,12.908,7.534L12.908,7.534z"/>
		</g>
	</g>
	<path fill="none" stroke="#000000" stroke-width="0.2297" stroke-miterlimit="10" d="M12.908,17.756"/>
	<path fill="none" stroke="#F16C24" stroke-width="0.4" stroke-miterlimit="10" d="M12.908,15.931c-1.811,0-3.286-1.475-3.286-3.286
		c0-1.811,1.476-3.286,3.286-3.286s3.286,1.475,3.286,3.286C16.194,14.456,14.719,15.931,12.908,15.931L12.908,15.931z
		 M12.908,15.931"/>
	<path d="M13.069,10.017"/>
	<path fill="#F16C24" d="M13.638,12.646c0,0.403-0.326,0.73-0.729,0.73s-0.73-0.327-0.73-0.73s0.327-0.73,0.73-0.73
		S13.638,12.242,13.638,12.646L13.638,12.646z M13.638,12.646"/>
	<path fill="none" stroke="#F16C24" stroke-width="0.4" stroke-linecap="round" stroke-linejoin="round" stroke-miterlimit="10" d="
		M10.278,12.646c0-1.449,1.181-2.63,2.63-2.63"/>
</g>
</svg>
