<?xml version="1.0" encoding="utf-8"?>
<!-- Generator: Adobe Illustrator 16.0.0, SVG Export Plug-In . SVG Version: 6.00 Build 0)  -->
<!DOCTYPE svg PUBLIC "-//W3C//DTD SVG 1.1//EN" "http://www.w3.org/Graphics/SVG/1.1/DTD/svg11.dtd">
<svg version="1.1" id="Layer_1" xmlns="http://www.w3.org/2000/svg" xmlns:xlink="http://www.w3.org/1999/xlink" x="0px" y="0px"
	 width="26px" height="26px" viewBox="0 0 26 26" enable-background="new 0 0 26 26" xml:space="preserve">
<g>
	<path fill="none" stroke="#000000" stroke-width="0.2297" stroke-miterlimit="10" d="M12.908,17.756"/>
	<path d="M13.069,10.017"/>
	<g>
		<g>
			<path fill="#F16C24" d="M16.826,4.258c0.34,0,0.647,0.05,0.919,0.151c0.909,0.326,1.467,1.054,1.708,2.238
				c0.172,0.73,0.159,1.473-0.038,2.209c-0.204,0.773-0.493,1.574-0.858,2.381c-0.393,0.874-0.626,1.562-0.707,2.081
				c-0.039,0.177-0.086,0.581-0.049,2.038c0.026,1.035-0.014,2.034-0.117,2.959c-0.57,4.099-1.425,4.542-1.766,4.542
				c-0.128,0-0.229-0.032-0.32-0.101c-0.091-0.067-0.164-0.194-0.219-0.375c-0.073-0.245-0.13-0.49-0.168-0.728
				c-0.037-0.236-0.055-0.559-0.055-0.96c0-0.406,0.012-0.744,0.037-1.001c0.027-0.271,0.055-0.638,0.08-1.093
				c0.057-0.783,0.07-1.315,0.041-1.626c-0.226-2.519-1.572-3.048-2.662-3.048c-1.089,0-2.435,0.529-2.66,3.043
				c-0.029,0.296-0.018,0.83,0.039,1.625l0.01,0.166c0.021,0.375,0.037,0.679,0.049,0.915c0.015,0.264,0.027,0.609,0.041,1.031
				c0.012,0.405,0,0.723-0.037,0.95c-0.034,0.228-0.09,0.472-0.166,0.726c-0.054,0.179-0.13,0.309-0.219,0.376
				c-0.091,0.068-0.192,0.1-0.32,0.1c-0.341,0-1.194-0.443-1.765-4.53c-0.104-0.964-0.145-1.957-0.118-2.951
				c0.027-1.072,0.012-1.723-0.046-2.035c-0.085-0.545-0.317-1.234-0.712-2.106C6.383,10.427,6.094,9.625,5.89,8.856
				c-0.197-0.74-0.223-1.487-0.075-2.214c0.262-1.175,0.833-1.906,1.75-2.235C7.832,4.308,8.141,4.258,8.48,4.258
				c0.462,0,0.998,0.093,1.591,0.276c1.171,0.362,2.015,0.539,2.581,0.539s1.411-0.176,2.582-0.539
				C15.827,4.351,16.362,4.258,16.826,4.258 M16.826,3.858c-0.506,0-1.076,0.098-1.71,0.294c-1.121,0.347-1.943,0.521-2.464,0.521
				c-0.52,0-1.342-0.174-2.463-0.521C9.556,3.956,8.985,3.858,8.48,3.858c-0.39,0-0.741,0.058-1.055,0.174
				c-1.042,0.374-1.71,1.214-2.002,2.523C5.262,7.356,5.289,8.157,5.503,8.959c0.213,0.801,0.508,1.615,0.881,2.443
				c0.374,0.828,0.602,1.495,0.681,2.003c0.055,0.293,0.067,0.948,0.041,1.963c-0.026,1.014,0.014,2.016,0.121,3.004
				c0.454,3.257,1.174,4.887,2.162,4.887c0.213,0,0.4-0.06,0.561-0.18s0.281-0.314,0.361-0.581c0.08-0.267,0.141-0.528,0.179-0.782
				c0.041-0.253,0.054-0.594,0.041-1.021c-0.014-0.427-0.026-0.775-0.041-1.042c-0.013-0.267-0.033-0.627-0.059-1.082
				c-0.055-0.774-0.067-1.295-0.04-1.562c0.16-1.789,0.913-2.684,2.262-2.684c1.35,0,2.104,0.895,2.264,2.684
				c0.027,0.293,0.013,0.814-0.041,1.562c-0.025,0.454-0.053,0.814-0.08,1.082c-0.025,0.267-0.039,0.614-0.039,1.042
				c0,0.427,0.021,0.768,0.06,1.021c0.041,0.254,0.101,0.515,0.181,0.782c0.08,0.267,0.2,0.46,0.361,0.581
				c0.16,0.121,0.347,0.18,0.561,0.18c0.988,0,1.709-1.629,2.162-4.887c0.107-0.961,0.147-1.97,0.121-3.024
				c-0.027-1.055-0.014-1.702,0.039-1.942c0.08-0.508,0.309-1.175,0.682-2.003c0.374-0.828,0.668-1.642,0.88-2.443
				c0.215-0.802,0.229-1.603,0.041-2.404c-0.267-1.309-0.921-2.149-1.963-2.523C17.566,3.916,17.215,3.858,16.826,3.858
				L16.826,3.858z"/>
		</g>
	</g>
	<path fill="none" stroke="#000000" stroke-width="0.4" stroke-miterlimit="10" d="M19.593,5.639"/>
</g>
</svg>
