<?xml version="1.0" encoding="utf-8"?>
<!-- Generator: Adobe Illustrator 16.0.0, SVG Export Plug-In . SVG Version: 6.00 Build 0)  -->
<!DOCTYPE svg PUBLIC "-//W3C//DTD SVG 1.1//EN" "http://www.w3.org/Graphics/SVG/1.1/DTD/svg11.dtd">
<svg version="1.1" id="Layer_1" xmlns="http://www.w3.org/2000/svg" xmlns:xlink="http://www.w3.org/1999/xlink" x="0px" y="0px"
	 width="26px" height="26px" viewBox="0 0 26 26" enable-background="new 0 0 26 26" xml:space="preserve">
<g>
	<path fill="none" stroke="#000000" stroke-width="0.2297" stroke-miterlimit="10" d="M12.908,17.756"/>
	<path d="M13.069,10.017"/>
	<path fill="none" stroke="#000000" stroke-width="0.4" stroke-miterlimit="10" d="M19.593,5.639"/>
	<path d="M13.109,10.053"/>
	<g>
		<path fill="none" stroke="#F16C24" stroke-width="0.4" stroke-miterlimit="10" d="M13.109,10.303
			c-1.438,0-2.604,1.138-2.604,2.538c0,1.398,1.166,2.539,2.604,2.539c1.436,0,2.603-1.14,2.603-2.539
			C15.712,11.441,14.545,10.303,13.109,10.303L13.109,10.303z"/>
		<g>
			<g>
				<path fill="#F16C24" d="M13.492,3.797c0.239,0.501,0.632,1.431,0.94,2.197l0.071,0.178l0.063,0.159l0.158,0.064l1.603,0.647
					l0.161,0.065l0.157-0.074l0.172-0.08c0.84-0.381,1.727-0.764,2.205-0.953L19.9,6.856c-0.183,0.485-0.54,1.342-0.917,2.19
					l-0.081,0.179l-0.072,0.16l0.068,0.161l0.67,1.584l0.068,0.161l0.164,0.06l0.19,0.068c0.904,0.321,1.759,0.647,2.229,0.847
					v1.185c-0.48,0.218-1.372,0.584-2.243,0.919l-0.18,0.069l-0.16,0.061l-0.066,0.158l-0.665,1.584l-0.069,0.167l0.078,0.163
					l0.088,0.181c0.373,0.779,0.757,1.637,0.956,2.127l-0.874,0.853c-0.5-0.179-1.416-0.545-2.265-0.909l-0.173-0.073l-0.152-0.064
					l-0.152,0.062l-1.603,0.647l-0.164,0.066l-0.062,0.166l-0.07,0.189c-0.305,0.819-0.656,1.7-0.87,2.183h-1.256
					c-0.221-0.467-0.596-1.339-0.941-2.194l-0.07-0.178l-0.063-0.159l-0.159-0.064l-1.601-0.649l-0.16-0.065L9.166,18.76
					L8.99,18.841c-0.836,0.381-1.722,0.764-2.202,0.953l-0.876-0.859c0.188-0.497,0.556-1.379,0.914-2.186l0.081-0.179l0.072-0.16
					l-0.068-0.162L6.242,14.67l-0.067-0.16l-0.163-0.06l-0.189-0.07c-0.908-0.324-1.763-0.65-2.229-0.85v-1.188
					c0.483-0.219,1.374-0.584,2.239-0.917l0.181-0.068l0.159-0.061l0.066-0.158l0.668-1.584l0.07-0.167l-0.08-0.163L6.81,9.045
					C6.417,8.221,6.045,7.393,5.854,6.919l0.874-0.855C7.227,6.242,8.13,6.602,8.997,6.971l0.175,0.074l0.152,0.064l0.153-0.063
					l1.599-0.649l0.164-0.066l0.062-0.167l0.067-0.185c0.282-0.758,0.643-1.678,0.867-2.183H13.492 M13.739,3.397h-1.758
					C11.777,3.809,11.344,4.9,10.994,5.84l-0.068,0.187L9.327,6.676L9.152,6.602C8.195,6.195,7.064,5.745,6.625,5.606L5.387,6.817
					c0.154,0.434,0.633,1.5,1.062,2.4l0.089,0.182L5.87,10.983l-0.181,0.069c-0.964,0.371-2.078,0.829-2.497,1.037v1.701
					c0.421,0.202,1.536,0.625,2.495,0.968l0.187,0.068l0.669,1.579l-0.081,0.179c-0.411,0.925-0.866,2.02-1.014,2.457l1.242,1.217
					c0.4-0.14,1.521-0.622,2.466-1.053l0.177-0.081l1.601,0.649l0.07,0.178c0.383,0.946,0.854,2.042,1.064,2.447h1.761
					c0.201-0.411,0.641-1.505,0.989-2.443l0.07-0.188l1.603-0.647l0.173,0.073c0.953,0.408,2.086,0.86,2.523,0.998l1.238-1.209
					c-0.157-0.437-0.633-1.503-1.063-2.402l-0.089-0.183l0.665-1.584l0.18-0.069c0.967-0.372,2.082-0.83,2.501-1.039v-1.698
					c-0.422-0.201-1.537-0.624-2.495-0.964l-0.188-0.068l-0.67-1.584l0.081-0.179c0.412-0.928,0.869-2.021,1.016-2.462l-1.242-1.213
					c-0.4,0.14-1.521,0.622-2.468,1.052l-0.176,0.082l-1.603-0.647l-0.071-0.178C14.424,4.9,13.954,3.802,13.739,3.397L13.739,3.397
					z"/>
			</g>
		</g>
	</g>
</g>
</svg>
