<?xml version="1.0" encoding="utf-8"?>
<!-- Generator: Adobe Illustrator 16.0.0, SVG Export Plug-In . SVG Version: 6.00 Build 0)  -->
<!DOCTYPE svg PUBLIC "-//W3C//DTD SVG 1.1//EN" "http://www.w3.org/Graphics/SVG/1.1/DTD/svg11.dtd">
<svg version="1.1" id="Layer_1" xmlns="http://www.w3.org/2000/svg" xmlns:xlink="http://www.w3.org/1999/xlink" x="0px" y="0px"
	 width="26px" height="26px" viewBox="0 0 26 26" enable-background="new 0 0 26 26" xml:space="preserve">
<g>
	<path fill="none" stroke="#000000" stroke-width="0.4" stroke-miterlimit="10" d="M19.593,5.639"/>
	<path fill="none" stroke="#000000" stroke-width="0.39" stroke-miterlimit="10" d="M12.831,21.497"/>
	<g>
		<g>
			<path fill="#F16C24" d="M12.831,3.591c5.135,0,9.313,4.179,9.313,9.314c0,5.135-4.178,9.313-9.313,9.313
				c-5.136,0-9.313-4.178-9.313-9.313C3.518,7.77,7.695,3.591,12.831,3.591 M12.831,3.191c-5.357,0-9.714,4.357-9.714,9.714
				c0,5.356,4.356,9.713,9.714,9.713c5.356,0,9.713-4.356,9.713-9.713C22.544,7.548,18.188,3.191,12.831,3.191L12.831,3.191z"/>
		</g>
	</g>
	<g>
		<path fill="none" stroke="#000000" stroke-width="0.285" stroke-miterlimit="10" d="M13.012,20.34"/>
	</g>
</g>
<g>
	<g>
		<path fill="#F16C24" d="M18.063,17.594l-0.632-0.842c-0.139-0.186-0.216-0.415-0.216-0.647v-2.901
			c0-2.347-1.851-4.271-4.169-4.388V8.407c0.707-0.108,1.251-0.721,1.251-1.458c0-0.813-0.662-1.475-1.475-1.475
			c-0.813,0-1.475,0.661-1.475,1.475c0,0.737,0.543,1.349,1.25,1.458v0.409c-2.318,0.117-4.168,2.041-4.168,4.388v2.901
			c0,0.232-0.077,0.462-0.216,0.647l-0.633,0.842c-0.119,0.16-0.139,0.369-0.051,0.547c0.09,0.178,0.27,0.289,0.469,0.289h3.766
			v0.193c0,0.583,0.474,1.058,1.058,1.058c0.582,0,1.058-0.474,1.058-1.058v-0.193h3.766c0.199,0,0.377-0.111,0.467-0.289
			S18.183,17.754,18.063,17.594L18.063,17.594z M11.795,6.95c0-0.566,0.46-1.027,1.027-1.027c0.565,0,1.026,0.46,1.026,1.027
			c0,0.489-0.344,0.899-0.803,1.002V7.783c0-0.124-0.101-0.224-0.224-0.224c-0.124,0-0.225,0.1-0.225,0.224v0.169
			C12.139,7.849,11.795,7.439,11.795,6.95L11.795,6.95z M13.433,18.624c0,0.336-0.275,0.61-0.61,0.61c-0.337,0-0.61-0.274-0.61-0.61
			v-0.193h1.221V18.624z M17.712,17.941c-0.008,0.015-0.026,0.042-0.066,0.042H7.999c-0.04,0-0.059-0.026-0.066-0.042
			c-0.008-0.016-0.018-0.046,0.008-0.078l0.631-0.843c0.147-0.198,0.247-0.431,0.287-0.675h6.883c0.122,0,0.223-0.101,0.223-0.224
			c0-0.124-0.101-0.224-0.223-0.224H8.877v-2.694c0-2.175,1.771-3.945,3.945-3.945s3.944,1.77,3.944,3.945v2.901
			c0,0.328,0.109,0.653,0.307,0.916l0.631,0.843C17.729,17.896,17.72,17.926,17.712,17.941L17.712,17.941z M17.712,17.941"/>
	</g>
</g>
</svg>
