<?xml version="1.0" encoding="utf-8"?>
<!-- Generator: Adobe Illustrator 16.0.0, SVG Export Plug-In . SVG Version: 6.00 Build 0)  -->
<!DOCTYPE svg PUBLIC "-//W3C//DTD SVG 1.1//EN" "http://www.w3.org/Graphics/SVG/1.1/DTD/svg11.dtd">
<svg version="1.1" xmlns="http://www.w3.org/2000/svg" xmlns:xlink="http://www.w3.org/1999/xlink" x="0px" y="0px" width="64px"
	 height="64px" viewBox="0 0 64 64" enable-background="new 0 0 64 64" xml:space="preserve">
<g id="Layer_3" display="none">
	<rect x="-8.335" y="-208.866" display="inline" width="654" height="382"/>
</g>
<g id="Layer_4">
	<polygon fill="#FFFFFF" points="28.417,9.218 22,10.718 18.583,13.885 17.5,17.635 18.5,25.718 20,28.802 21,32 21.5,34.677 
		20.667,39.552 21.417,43.427 22.042,47.177 23.792,49.26 25.583,52.052 27.583,52.052 27.458,49.135 27.5,45.76 28.417,42.677 
		28.917,40.718 30.292,38.718 31.333,37.177 32,37.177 33.042,38.302 34.5,40.26 35.792,42.843 36.75,45.718 37.09,46.593 
		36.709,50.802 36.084,54.218 37.414,54.717 39.667,53.26 41.417,51.052 43.167,47.802 44.834,44.177 45.292,40.385 45.292,36.74 
		44.334,33.51 44.5,30.468 44.959,26.677 47.084,21.01 47.75,16.302 46.167,11.718 42.625,9.218 35.459,9.593 30.333,9.635 	"/>
</g>
<g id="Layer_1">
	<g>
		<path fill="#B3B1B2" d="M28.043,54.717c-0.123,0-0.248-0.022-0.369-0.07c-1.43-0.568-2.832-2.277-3.855-3.525l-0.354-0.428
			c-1.309-1.562-2.275-3.973-2.621-5.551c-0.666-3.055-0.502-6.264-0.342-9.368l0.053-1.05c0.07-1.477,0.137-2.871-0.438-4.076
			c-0.314-0.66-0.717-1.26-1.143-1.896c-0.537-0.798-1.09-1.623-1.492-2.612c-1.432-3.531-2.021-8.904,0.072-12.356
			c2.102-3.472,5.678-5.382,10.068-5.382c0.012,0,0.025,0,0.037,0l0.455-0.001c1.736-0.001,3.236-0.007,4.936,1.03
			c0.568,0.349,1.131,0.668,1.691,0.986c0.623,0.354,1.246,0.707,1.875,1.096c0.469,0.291,0.613,0.907,0.322,1.377
			c-0.289,0.469-0.906,0.615-1.375,0.324c-0.607-0.376-1.209-0.717-1.809-1.059c-0.58-0.328-1.16-0.658-1.748-1.018
			c-1.217-0.742-2.271-0.732-3.889-0.737l-0.463,0.001c-0.012,0-0.021,0-0.031,0c-3.666,0-6.633,1.568-8.359,4.418
			c-1.658,2.736-1.221,7.387,0.07,10.568c0.324,0.798,0.797,1.504,1.299,2.25c0.447,0.667,0.91,1.356,1.289,2.148
			c0.789,1.66,0.703,3.452,0.629,5.033L22.5,35.877c-0.154,2.973-0.313,6.047,0.297,8.838c0.355,1.621,1.281,3.596,2.201,4.694
			l0.365,0.444c0.785,0.956,2.1,2.557,3.049,2.934c0.514,0.204,0.764,0.785,0.561,1.299C28.816,54.479,28.441,54.717,28.043,54.717z
			"/>
		<path fill="#B3B1B2" d="M35.82,56.09c-0.254,0-0.498-0.096-0.686-0.271c-0.221-0.209-0.336-0.508-0.311-0.811
			c0.109-1.33,0.406-2.605,0.693-3.84c0.496-2.137,0.965-4.156,0.445-6.277c-0.48-1.978-2.297-4.756-4.051-6.74
			c-0.082,0.094-0.162,0.185-0.24,0.272c-0.141,0.157-0.285,0.316-0.418,0.499c-0.412,0.568-0.74,1.253-1.084,1.978
			c-0.111,0.232-0.223,0.464-0.336,0.692c-0.686,1.376-1.039,2.588-1.219,4.184l-0.029,0.266c-0.238,2.088-0.635,5.583,0.314,7.16
			c0.285,0.474,0.131,1.088-0.342,1.373s-1.088,0.131-1.373-0.342c-1.297-2.159-0.871-5.925-0.588-8.417l0.029-0.263
			c0.205-1.822,0.629-3.273,1.418-4.854c0.107-0.217,0.213-0.438,0.318-0.66c0.369-0.774,0.752-1.575,1.273-2.293
			c0.174-0.24,0.359-0.45,0.543-0.656c0.295-0.328,0.508-0.566,0.617-0.895c0.111-0.326,0.383-0.573,0.717-0.652
			c0.336-0.08,0.689,0.02,0.934,0.262c1.779,1.758,4.703,5.502,5.459,8.611c0.633,2.584,0.086,4.934-0.441,7.205
			c-0.145,0.624-0.285,1.23-0.402,1.832c1.072-0.714,2.342-1.898,3.24-2.984c1.08-1.302,1.621-2.814,2.195-4.416
			c0.113-0.313,0.225-0.627,0.342-0.941c0.695-1.873,1.172-3.361,0.973-5.451c-0.072-0.751-0.182-1.487-0.291-2.221
			c-0.191-1.297-0.389-2.639-0.389-4.051c0.004-3.627,0.609-6.74,1.904-9.799c1.35-3.2,1.742-5.762,1.352-8.841
			c-0.27-2.121-1.957-4.435-4.316-4.634c-1.145-0.097-2.355,0.105-3.637,0.32c-1.891,0.318-3.846,0.645-5.865,0.067
			c-0.531-0.151-0.84-0.705-0.688-1.236c0.152-0.53,0.705-0.839,1.236-0.687c1.586,0.453,3.238,0.176,4.986-0.117
			c1.348-0.226,2.74-0.46,4.137-0.342c3.496,0.297,5.768,3.507,6.131,6.377c0.432,3.412-0.014,6.363-1.494,9.87
			c-1.188,2.806-1.742,5.673-1.746,9.022c0,1.265,0.178,2.475,0.367,3.756c0.115,0.768,0.229,1.537,0.303,2.322
			c0.24,2.508-0.324,4.281-1.088,6.339c-0.115,0.309-0.225,0.614-0.334,0.919c-0.607,1.694-1.234,3.445-2.537,5.018
			c-0.033,0.04-3.313,3.97-5.883,4.336C35.914,56.086,35.867,56.09,35.82,56.09z"/>
	</g>
	<g id="Layer_2">
	</g>
</g>
</svg>
