<?xml version="1.0" encoding="utf-8"?>
<!-- Generator: Adobe Illustrator 16.0.0, SVG Export Plug-In . SVG Version: 6.00 Build 0)  -->
<!DOCTYPE svg PUBLIC "-//W3C//DTD SVG 1.1//EN" "http://www.w3.org/Graphics/SVG/1.1/DTD/svg11.dtd">
<svg version="1.1" xmlns="http://www.w3.org/2000/svg" xmlns:xlink="http://www.w3.org/1999/xlink" x="0px" y="0px" width="64px"
	 height="64px" viewBox="0 0 64 64" enable-background="new 0 0 64 64" xml:space="preserve">
<g id="Layer_3" display="none">
	<rect x="-548.668" y="-298.366" display="inline" width="654" height="382"/>
</g>
<g id="Layer_4">
	<circle fill="#FFFFFF" cx="16.745" cy="26.025" r="4.109"/>
	<circle fill="#FFFFFF" cx="47.704" cy="26.025" r="4.109"/>
	<circle fill="#FFFFFF" cx="32.344" cy="22.994" r="5.453"/>
	<path fill="#F1F0F1" d="M11.6,33.081l-2.132,3.074L8.604,40.01l0.321,3.313l5.179,0.874h5.563h1.74l0.291,2.688l4.031,0.457H32
		h6.145h5.046l0.196-3.699h2.968l4.875,0.367l3.5-0.625l1.146-0.686l-0.155-5.228l-1.014-2.563l-1.795-2.068l-1.558,1.169
		l-4.313,1.063l-2.788-1.198l-1.013-0.908l-1.378-0.125l-1.694-1.458l-1.587-0.904l-0.785,1.156c0,0-1.755,1.25-2.13,1.25
		s-3.427,0.526-3.427,0.526s-2.687-0.559-2.843-0.625s-1.293-0.255-1.293-0.255l-2-1.146l0.031-1.186l-1.406,1.498l-1.188,1.313
		l-1.844,0.25l-1.719,0.625c0,0-1.5,0.898-1.688,0.855s-2.378,0-2.378,0l-1.56-0.418l-1.582-0.688L11.6,33.081z"/>
</g>
<g id="Layer_1">
	
		<circle fill="none" stroke="#F39A20" stroke-width="2" stroke-linecap="round" stroke-linejoin="round" stroke-miterlimit="10" cx="32.468" cy="23.043" r="5.677"/>
	<path fill="none" stroke="#B3B0B2" stroke-width="2" stroke-linecap="round" stroke-linejoin="round" stroke-miterlimit="10" d="
		M43.241,38.912c0-3.582-1.75-6.754-4.439-8.713c-1.431,1.947-3.731,3.219-6.332,3.219c-2.602,0-4.902-1.271-6.334-3.219
		c-2.69,1.959-4.438,5.131-4.438,8.713c0,0.348,0.018,8.092,0.049,8.43H43.19C43.223,47.004,43.241,39.26,43.241,38.912z"/>
	<path fill="none" stroke="#DD573E" stroke-width="2" stroke-linecap="round" stroke-linejoin="round" stroke-miterlimit="10" d="
		M21.407,26.158c0,2.387-1.933,4.32-4.317,4.32s-4.317-1.934-4.317-4.32c0-2.383,1.933-4.316,4.317-4.316
		S21.407,23.775,21.407,26.158z"/>
	<path fill="none" stroke="#B3B0B2" stroke-width="2" stroke-linecap="round" stroke-linejoin="round" stroke-miterlimit="10" d="
		M22.931,33.416c-0.316-0.32-0.661-0.617-1.025-0.885c-1.088,1.482-2.837,2.449-4.815,2.449c-1.979,0-3.729-0.967-4.816-2.449
		c-2.046,1.49-3.376,3.902-3.376,6.627c0,0.264,0.014,4.227,0.038,4.484h11.098h1.374"/>
	<path fill="none" stroke="#82AA8D" stroke-width="2" stroke-linecap="round" stroke-linejoin="round" stroke-miterlimit="10" d="
		M43.387,26.158c0,2.387,1.933,4.32,4.317,4.32s4.318-1.934,4.318-4.32c0-2.383-1.934-4.316-4.318-4.316
		S43.387,23.775,43.387,26.158z"/>
	<path fill="none" stroke="#B3B0B2" stroke-width="2" stroke-linecap="round" stroke-linejoin="round" stroke-miterlimit="10" d="
		M41.863,33.416c0.316-0.32,0.66-0.617,1.025-0.885c1.088,1.482,2.838,2.449,4.815,2.449c1.98,0,3.729-0.967,4.815-2.449
		c2.047,1.49,3.378,3.902,3.378,6.627c0,0.264-0.015,4.227-0.04,4.484H44.761h-1.374"/>
	<g id="Layer_2">
	</g>
</g>
</svg>
