<?xml version="1.0" encoding="utf-8"?>
<!-- Generator: Adobe Illustrator 16.0.0, SVG Export Plug-In . SVG Version: 6.00 Build 0)  -->
<!DOCTYPE svg PUBLIC "-//W3C//DTD SVG 1.1//EN" "http://www.w3.org/Graphics/SVG/1.1/DTD/svg11.dtd">
<svg version="1.1" xmlns="http://www.w3.org/2000/svg" xmlns:xlink="http://www.w3.org/1999/xlink" x="0px" y="0px" width="64px"
	 height="64px" viewBox="0 0 64 64" enable-background="new 0 0 64 64" xml:space="preserve">
<g id="Layer_3" display="none">
	<rect x="-102.001" y="-9" display="inline" width="654" height="382"/>
</g>
<g id="Layer_4">
	<path fill="#FFFFFF" d="M44.667,52.668c0,1.104-0.993,2-2.217,2H15.051c-1.224,0-2.217-0.896-2.217-2V11.667
		c0-1.104,0.993-2,2.217-2H42.45c1.224,0,2.217,0.896,2.217,2V52.668z"/>
	<polygon fill="#FFFFFF" points="48.834,18.166 34.084,40.07 32,49.088 40.751,43.834 55.334,21.584 49.417,17.513 	"/>
</g>
<g id="Layer_1">
	<g>
		<path fill="#B3B1B2" d="M42.054,56.303H15.032c-2.134,0-3.869-1.918-3.869-4.273V12.074c0-2.355,1.735-4.272,3.869-4.272h27.021
			c2.133,0,3.868,1.917,3.868,4.272v10.842c0,0.553-0.447,1-1,1s-1-0.447-1-1V12.074c0-1.231-0.855-2.272-1.868-2.272H15.032
			c-1.013,0-1.869,1.041-1.869,2.272v39.955c0,1.232,0.856,2.273,1.869,2.273h27.021c1.013,0,1.868-1.041,1.868-2.273V38.826
			c0-0.553,0.447-1,1-1s1,0.447,1,1v13.203C45.922,54.385,44.187,56.303,42.054,56.303z"/>
		<rect x="9.071" y="15.016" fill="#F59B1E" width="6.82" height="2"/>
		<rect x="9.071" y="23.033" fill="#B3B1B2" width="6.82" height="2"/>
		<rect x="9.071" y="31.053" fill="#83AA8E" width="6.82" height="2"/>
		<rect x="9.071" y="39.07" fill="#B3B1B2" width="6.82" height="2"/>
		<rect x="9.071" y="47.088" fill="#DE5740" width="6.82" height="2"/>
		<path fill="#B3B1B2" d="M38.252,41.746c-0.19,0-0.384-0.055-0.554-0.168c-0.46-0.307-0.584-0.928-0.277-1.387L48.59,23.443
			c0.305-0.461,0.928-0.586,1.387-0.277c0.46,0.307,0.584,0.926,0.277,1.387L39.085,41.301
			C38.893,41.59,38.575,41.746,38.252,41.746z"/>
		<path fill="#B3B1B2" d="M52.691,26.525c-0.19,0-0.384-0.055-0.554-0.168L46.2,22.398c-0.46-0.307-0.584-0.928-0.277-1.387
			c0.305-0.461,0.928-0.585,1.387-0.277l5.938,3.959c0.46,0.307,0.584,0.928,0.277,1.387C53.332,26.369,53.015,26.525,52.691,26.525
			z"/>
		<rect x="24.021" y="17.513" fill="#B3B1B2" width="12.565" height="2"/>
		<rect x="24.021" y="25.777" fill="#B3B1B2" width="12.565" height="2"/>
		<rect x="24.021" y="34.041" fill="#DE5740" width="7.972" height="2"/>
		<path fill="#DE5740" d="M40.549,44.967c-0.391,0-0.763-0.232-0.923-0.615c-1.234-2.957-5.128-3.643-5.168-3.648
			c-0.544-0.092-0.912-0.607-0.82-1.152c0.091-0.545,0.598-0.912,1.152-0.82c0.204,0.033,5.027,0.887,6.682,4.85
			c0.213,0.51-0.028,1.096-0.538,1.309C40.809,44.941,40.678,44.967,40.549,44.967z"/>
		<path fill="#83AA8E" d="M31.993,51.113c-0.193,0-0.387-0.057-0.556-0.17c-0.347-0.23-0.513-0.652-0.418-1.059l2.447-10.436
			c0.027-0.115,0.075-0.227,0.142-0.326L48.477,16.83c0.305-0.459,0.928-0.585,1.387-0.277l6.263,4.176
			c0.221,0.148,0.374,0.377,0.426,0.637s-0.001,0.529-0.148,0.75L41.535,44.408c-0.066,0.102-0.151,0.188-0.248,0.258l-8.71,6.258
			C32.402,51.049,32.198,51.113,31.993,51.113z M35.373,40.082l-1.797,7.662l6.396-4.596l14.213-21.311l-4.599-3.066L35.373,40.082z
			"/>
	</g>
	<g id="Layer_2">
	</g>
</g>
</svg>
