<?xml version="1.0" encoding="utf-8"?>
<!-- Generator: Adobe Illustrator 16.0.0, SVG Export Plug-In . SVG Version: 6.00 Build 0)  -->
<!DOCTYPE svg PUBLIC "-//W3C//DTD SVG 1.1//EN" "http://www.w3.org/Graphics/SVG/1.1/DTD/svg11.dtd">
<svg version="1.1" xmlns="http://www.w3.org/2000/svg" xmlns:xlink="http://www.w3.org/1999/xlink" x="0px" y="0px" width="64px"
	 height="64px" viewBox="0 0 64 64" enable-background="new 0 0 64 64" xml:space="preserve">
<g id="Layer_3" display="none">
	<rect x="-192.668" y="-208.866" display="inline" width="654" height="382"/>
</g>
<g id="Layer_4">
</g>
<g id="Layer_1">
	<g id="Layer_2">
	</g>
	<g>
		<path fill="#B3B1B2" d="M26.183,35.402c-8.002,0-14.514-7.332-14.514-16.346c0-2.109,0.351-4.16,1.041-6.095
			c0.017-0.065,0.361-1.212,1.248-2.246c1.264-1.47,3.023-1.976,4.953-1.425c0.53,0.151,0.838,0.705,0.686,1.236
			c-0.15,0.53-0.704,0.839-1.236,0.686c-2.729-0.781-3.652,2.039-3.748,2.363c-0.632,1.776-0.943,3.602-0.943,5.48
			c0,7.91,5.613,14.346,12.514,14.346c6.901,0,12.516-6.436,12.516-14.346c0-1.957-0.336-3.849-1-5.624
			c-0.012-0.03-0.59-1.595-1.781-2.001c-0.668-0.229-1.479-0.044-2.404,0.547c-0.465,0.297-1.084,0.161-1.381-0.306
			c-0.297-0.466-0.16-1.084,0.305-1.381c1.471-0.937,2.863-1.188,4.141-0.748c2.107,0.728,2.965,3.106,3.001,3.206
			c0.741,1.982,1.12,4.109,1.12,6.307C40.698,28.07,34.187,35.402,26.183,35.402z"/>
		<path fill="#F59B1E" d="M26.466,55.544c-0.371,0-0.744-0.009-1.117-0.024c-0.963-0.041-5.873-0.379-7.954-2.965
			c-0.765-0.95-1.056-2.109-0.841-3.35c0.465-2.668,2.497-4.215,4.291-5.58c0.502-0.382,1-0.76,1.457-1.16
			c2.506-2.188,3.351-4.08,3.351-7.496c0-0.553,0.448-1,1-1s1,0.447,1,1c0,3.994-1.093,6.434-4.034,9.002
			c-0.5,0.437-1.04,0.848-1.563,1.246c-1.646,1.252-3.201,2.436-3.531,4.33c-0.119,0.686,0.018,1.243,0.428,1.754
			c1.119,1.389,4.063,2.116,6.482,2.221c5.811,0.256,11.541-1.627,15.728-5.152c1.913-1.609,2.764-3.758,3.535-6.002
			c0.113-0.329,0.239-0.672,0.37-1.023c0.469-1.271,1-2.711,1.024-3.934c0.012-0.545,0.457-0.979,0.999-0.979
			c0.008,0,0.015,0,0.021,0c0.553,0.012,0.99,0.469,0.979,1.02c-0.032,1.56-0.626,3.166-1.148,4.584
			c-0.124,0.338-0.246,0.668-0.354,0.982c-0.832,2.42-1.836,4.943-4.139,6.883C38.155,53.517,32.384,55.543,26.466,55.544z"/>
		<g>
			<circle fill="#F1F0F1" cx="47.635" cy="32.443" r="4.494"/>
			<path fill="#DE5740" d="M47.638,37.938c-3.03,0-5.496-2.466-5.496-5.495s2.466-5.494,5.496-5.494
				c3.027,0,5.491,2.465,5.491,5.494S50.665,37.938,47.638,37.938z M47.638,28.949c-1.928,0-3.496,1.567-3.496,3.494
				c0,1.928,1.568,3.495,3.496,3.495c1.925,0,3.491-1.567,3.491-3.495C51.129,30.517,49.563,28.949,47.638,28.949z"/>
		</g>
		<path fill="#83AA8E" d="M18.63,13.892c-0.55,0-0.996-0.442-1-0.993c-0.004-0.552,0.439-1.003,0.992-1.007
			c1.173-0.009,1.455-0.144,1.781-0.854c0.19-0.412,0.395-1.173-0.362-1.645c-0.469-0.291-0.612-0.908-0.32-1.377
			s0.909-0.611,1.378-0.32c1.416,0.881,1.867,2.561,1.122,4.177c-0.847,1.846-2.235,2.01-3.584,2.02
			C18.634,13.892,18.632,13.892,18.63,13.892z"/>
		<path fill="#83AA8E" d="M32.769,14.562c-0.002,0-0.004,0-0.006,0c-1.35-0.009-2.738-0.171-3.586-2.019
			c-0.744-1.619-0.293-3.299,1.123-4.179c0.469-0.292,1.086-0.147,1.377,0.321c0.291,0.47,0.148,1.086-0.321,1.378
			c-0.757,0.47-0.552,1.231-0.362,1.645c0.326,0.711,0.609,0.847,1.781,0.854c0.552,0.003,0.997,0.454,0.994,1.006
			C33.765,14.117,33.317,14.562,32.769,14.562z"/>
	</g>
</g>
</svg>
