<?xml version="1.0" encoding="utf-8"?>
<!-- Generator: Adobe Illustrator 16.0.0, SVG Export Plug-In . SVG Version: 6.00 Build 0)  -->
<!DOCTYPE svg PUBLIC "-//W3C//DTD SVG 1.1//EN" "http://www.w3.org/Graphics/SVG/1.1/DTD/svg11.dtd">
<svg version="1.1" xmlns="http://www.w3.org/2000/svg" xmlns:xlink="http://www.w3.org/1999/xlink" x="0px" y="0px" width="64px"
	 height="64px" viewBox="0 0 64 64" enable-background="new 0 0 64 64" xml:space="preserve">
<g id="Layer_3" display="none">
	<rect x="-8.335" y="-298.366" display="inline" width="654" height="382"/>
</g>
<g id="Layer_4">
	<polygon fill="#FFFFFF" points="14.26,8.59 14.26,14.802 14.26,21.218 16.083,22.885 18.583,22.352 23.167,22.885 24.75,23.385 
		25.553,24.096 25.553,25.635 29.667,26.342 32,26.342 36.167,26.342 40.713,26.342 40.713,19.802 40.713,8.59 	"/>
	<polygon fill="#F1F0F1" points="10.105,22.885 10.105,46.218 11.918,48.359 32.411,48.359 30.813,39.052 34.833,34.74 
		38.565,31.008 43.33,31.008 44.567,29.771 44.567,27.13 42.583,27.13 29.417,27.13 27.337,25.941 25.553,24.096 24.583,22.635 	"/>
	<circle fill="#FFFFFF" cx="44.161" cy="43.286" r="12.974"/>
</g>
<g id="Layer_1">
	<path fill="none" stroke="#B3B0B2" stroke-width="2" stroke-linejoin="round" stroke-miterlimit="10" d="M44.869,30.072v-1.986
		c0-0.959-0.818-1.744-1.814-1.744H27.365c-0.998,0-1.813-0.785-1.813-1.744v-0.502c0-0.959-0.816-1.744-1.814-1.744h-11.82
		c-0.996,0-1.813,0.785-1.813,1.744v0.502c0,0.959,0,2.52,0,3.465s0,2.504,0,3.463v15.09c0,0.959,0.816,1.744,1.813,1.744h20.154"/>
	<polyline fill="none" stroke="#B3B0B2" stroke-width="2" stroke-linejoin="round" stroke-miterlimit="10" points="14.26,22.352 
		14.26,8.59 40.713,8.59 40.713,26.342 	"/>
	
		<line fill="none" stroke="#82AA8D" stroke-width="2" stroke-linecap="round" stroke-linejoin="round" stroke-miterlimit="10" x1="19.441" y1="13.887" x2="35.533" y2="13.887"/>
	
		<line fill="none" stroke="#F39A20" stroke-width="2" stroke-linecap="round" stroke-linejoin="round" stroke-miterlimit="10" x1="19.441" y1="19.008" x2="35.533" y2="19.008"/>
	
		<ellipse fill="none" stroke="#F39A20" stroke-width="2" stroke-linecap="round" stroke-linejoin="round" stroke-miterlimit="10" cx="43.959" cy="42.941" rx="13.146" ry="12.648"/>
	<path fill="#DE5740" d="M43.166,52.143v-2.264c-1.35-0.021-2.75-0.426-3.564-0.986l0.561-1.502
		c0.838,0.537,2.049,0.963,3.354,0.963c1.654,0,2.773-0.918,2.773-2.195c0-1.234-0.908-1.996-2.633-2.668
		c-2.377-0.896-3.846-1.928-3.846-3.877c0-1.861,1.377-3.271,3.52-3.609V33.74h1.445v2.176c1.396,0.045,2.352,0.402,3.027,0.783
		l-0.582,1.479c-0.49-0.27-1.445-0.762-2.938-0.762c-1.793,0-2.467,1.031-2.467,1.928c0,1.166,0.861,1.75,2.887,2.555
		c2.4,0.943,3.611,2.107,3.611,4.104c0,1.77-1.281,3.43-3.68,3.809v2.332H43.166z"/>
	<g id="Layer_2">
	</g>
</g>
</svg>
