<?xml version="1.0" encoding="utf-8"?>
<!-- Generator: Adobe Illustrator 16.0.0, SVG Export Plug-In . SVG Version: 6.00 Build 0)  -->
<!DOCTYPE svg PUBLIC "-//W3C//DTD SVG 1.1//EN" "http://www.w3.org/Graphics/SVG/1.1/DTD/svg11.dtd">
<svg version="1.1" xmlns="http://www.w3.org/2000/svg" xmlns:xlink="http://www.w3.org/1999/xlink" x="0px" y="0px" width="64px"
	 height="64px" viewBox="0 0 64 64" enable-background="new 0 0 64 64" xml:space="preserve">
<g id="Layer_3" display="none">
	<rect x="-373.168" y="-298.366" display="inline" width="654" height="382"/>
</g>
<g id="Layer_4">
	<circle fill="#FFFFFF" cx="42.983" cy="19.969" r="4.667"/>
	<polygon fill="#F1F0F1" points="37.967,26.541 33.906,27.635 29.601,41.468 29.458,43.956 31.702,45.25 32.895,44.887 
		35.375,38.596 36.583,35.551 36.75,42.01 37.375,47.26 39.958,47.26 48.792,47.26 49.231,34.348 52.833,43.956 54.095,45.237 
		55.294,44.985 56.29,43.728 55.832,41.231 51.164,27.313 47.807,26.436 45.208,30.593 42.874,34.348 40.367,30.014 	"/>
</g>
<g id="Layer_1">
	
		<circle fill="none" stroke="#82AA8D" stroke-width="2" stroke-linecap="round" stroke-miterlimit="10" cx="42.983" cy="20.096" r="4.824"/>
	<path fill="none" stroke="#B3B0B2" stroke-width="2" stroke-linecap="round" stroke-linejoin="round" stroke-miterlimit="10" d="
		M56.268,42.594l-4.868-15.223l-3.834-0.936l-4.584,8.332l-4.582-8.332l-3.834,0.936l-4.869,15.223
		c-0.345,1.08,0.273,2.227,1.381,2.563c0.208,0.064,0.418,0.094,0.625,0.094c0.895,0,1.724-0.563,2.004-1.438l3.271-10.229v14.025
		h5.793h0.424h5.793V33.584l3.271,10.229c0.279,0.875,1.109,1.438,2.004,1.438c0.207,0,0.418-0.029,0.625-0.094
		C55.995,44.82,56.613,43.674,56.268,42.594z"/>
	<path fill="none" stroke="#F39A20" stroke-width="2" stroke-linecap="round" stroke-linejoin="round" stroke-miterlimit="10" d="
		M33.906,23.412c-2.605-2.345-6.054-3.771-9.835-3.771c-8.123,0-14.708,6.584-14.708,14.707s6.585,14.708,14.708,14.708
		c1.791,0,3.506-0.319,5.094-0.905"/>
	<path fill="#DE5740" d="M21.621,43.956V41.43c-1.45-0.025-2.951-0.475-3.827-1.101l0.602-1.676c0.9,0.601,2.2,1.075,3.602,1.075
		c1.775,0,2.977-1.025,2.977-2.451c0-1.375-0.976-2.227-2.826-2.977c-2.552-1-4.128-2.15-4.128-4.326
		c0-2.076,1.477-3.652,3.776-4.027v-2.526h1.552v2.426c1.5,0.05,2.526,0.45,3.251,0.876l-0.625,1.65
		c-0.525-0.3-1.551-0.85-3.151-0.85c-1.926,0-2.651,1.15-2.651,2.15c0,1.301,0.926,1.951,3.102,2.852
		c2.576,1.051,3.877,2.352,3.877,4.578c0,1.975-1.376,3.826-3.952,4.252v2.601H21.621z"/>
	<g id="Layer_2">
	</g>
</g>
</svg>
