<?xml version="1.0" encoding="utf-8"?>
<!-- Generator: Adobe Illustrator 16.0.0, SVG Export Plug-In . SVG Version: 6.00 Build 0)  -->
<!DOCTYPE svg PUBLIC "-//W3C//DTD SVG 1.1//EN" "http://www.w3.org/Graphics/SVG/1.1/DTD/svg11.dtd">
<svg version="1.1" xmlns="http://www.w3.org/2000/svg" xmlns:xlink="http://www.w3.org/1999/xlink" x="0px" y="0px" width="64px"
	 height="64px" viewBox="0 0 64 64" enable-background="new 0 0 64 64" xml:space="preserve">
<g id="Layer_3" display="none">
	<rect x="-373.168" y="-208.866" display="inline" width="654" height="382"/>
</g>
<g id="Layer_4">
</g>
<g id="Layer_1">
	<g id="Layer_2">
	</g>
	<g>
		<g>
			<path fill="#F1F0F1" d="M42.832,9.948c-4.408,0-8.257,2.748-10.399,6.854c-2.146-4.105-5.997-6.854-10.405-6.854
				c-6.738,0-12.203,6.406-12.203,14.313c0,7.904,12.104,16.305,22.608,28.621C41.722,41.987,55.04,32.165,55.04,24.261
				C55.04,16.354,49.574,9.948,42.832,9.948z"/>
			<path fill="#B3B1B2" d="M32.433,54.423l-0.761-0.892c-3.353-3.931-6.947-7.538-10.119-10.722
				C14.441,35.673,8.824,30.036,8.824,24.261c0-8.443,5.923-15.313,13.203-15.313c4.126,0,7.914,2.174,10.404,5.895
				c2.489-3.721,6.274-5.895,10.4-5.895c7.283,0,13.208,6.869,13.208,15.313c0,5.875-6.324,12.217-13.646,19.561
				c-3.125,3.133-6.355,6.373-9.2,9.71L32.433,54.423z M22.027,10.948c-6.178,0-11.203,5.973-11.203,13.313
				c0,4.949,5.359,10.328,12.145,17.137c2.961,2.972,6.287,6.311,9.465,9.955c2.698-3.082,5.665-6.057,8.543-8.943
				c6.718-6.736,13.063-13.1,13.063-18.148c0-7.34-5.028-13.313-11.208-13.313c-3.893,0-7.448,2.361-9.513,6.316l-0.886,1.697
				l-0.888-1.696C29.479,13.31,25.921,10.948,22.027,10.948z"/>
		</g>
		<path fill="#DE5740" d="M32.433,43.544c-0.462,0-0.864-0.316-0.973-0.766l-4.59-19.117l-3.296,11.53
			c-0.123,0.429-0.516,0.726-0.962,0.726H9.824v-2h12.034l4.134-14.463c0.125-0.436,0.527-0.752,0.983-0.725
			c0.454,0.01,0.845,0.324,0.951,0.767l4.475,18.634l4.02-17.868c0.103-0.454,0.505-0.778,0.971-0.78
			c0.46-0.021,0.872,0.317,0.979,0.771l2.991,12.725h14.463v2H40.569c-0.464,0-0.867-0.318-0.974-0.771l-2.178-9.265l-4.01,17.822
			c-0.102,0.453-0.503,0.776-0.969,0.779C32.439,43.544,32.435,43.544,32.433,43.544z"/>
	</g>
</g>
</svg>
