<?xml version="1.0" encoding="utf-8"?>
<!-- Generator: Adobe Illustrator 16.0.0, SVG Export Plug-In . SVG Version: 6.00 Build 0)  -->
<!DOCTYPE svg PUBLIC "-//W3C//DTD SVG 1.1//EN" "http://www.w3.org/Graphics/SVG/1.1/DTD/svg11.dtd">
<svg version="1.1" xmlns="http://www.w3.org/2000/svg" xmlns:xlink="http://www.w3.org/1999/xlink" x="0px" y="0px" width="64px"
	 height="64px" viewBox="0 0 64 64" enable-background="new 0 0 64 64" xml:space="preserve">
<g id="Layer_3" display="none">
	<rect x="-8.335" y="-9" display="inline" width="654" height="382"/>
</g>
<g id="Layer_4">
	<polygon fill="#F1F0F1" points="8.564,27.313 11.314,33.938 15.439,40.188 19.701,44.813 21.857,46.246 21.126,48.875 
		24.001,53.688 27.564,53.688 29.564,53.188 31.439,54.512 34.896,56.125 38.189,56.125 38.652,53.445 35.408,46.916 30.283,40.464 
		22.751,33.134 14.4,27.313 9.814,26 	"/>
</g>
<g id="Layer_1">
	<g>
		<path fill="#DE5740" d="M52.902,19.521c-0.256,0-0.512-0.098-0.707-0.293c-0.391-0.389-0.391-1.023,0-1.414
			c2.039-2.039,2.535-4.863,1.105-6.295s-4.254-0.936-6.293,1.107c-0.391,0.391-1.023,0.391-1.414,0s-0.391-1.025,0-1.416
			c2.818-2.819,6.91-3.314,9.123-1.105c2.209,2.211,1.713,6.305-1.107,9.123C53.414,19.424,53.158,19.521,52.902,19.521z"/>
		<path fill="#B3B1B2" d="M36.926,57.221c-1.758,0.002-4.237-1.041-7.411-3.121c-0.461-0.303-0.59-0.924-0.287-1.385
			s0.922-0.59,1.385-0.289c4.249,2.785,6.5,3.088,6.975,2.613c1.02-1.021-1.902-7.914-10.899-16.908
			c-8.994-8.994-15.883-11.912-16.908-10.896c-0.342,0.342-0.404,1.971,1.807,5.688c2.016,3.391,5.244,7.375,9.09,11.221
			c0.324,0.322,0.65,0.643,0.975,0.957c0.396,0.385,0.406,1.018,0.023,1.414c-0.387,0.396-1.018,0.406-1.414,0.023
			c-0.332-0.322-0.664-0.648-0.996-0.979c-3.961-3.961-7.297-8.086-9.396-11.615c-2.383-4.004-2.887-6.736-1.502-8.123
			c2.904-2.9,12.125,3.287,19.736,10.896c7.612,7.611,13.799,16.834,10.899,19.736C38.488,56.965,37.795,57.221,36.926,57.221z"/>
		<g>
			<path fill="#FFFFFF" d="M10.343,26.066c3.168-0.098,10.158,4.463,17.053,11.357c6.897,6.895,11.458,13.885,11.36,17.053
				l0.035,0.035c1.689-12.625,12.568-22.824,12.971-23.225c4.045-4.047,3.785-10.865-1.789-16.439
				C44.4,9.275,37.582,9.014,33.535,13.061c-0.4,0.4-10.602,11.279-23.227,12.971L10.343,26.066z"/>
			<path fill="#B3B1B2" d="M38.791,55.512c-0.264,0-0.521-0.104-0.711-0.299l-0.035-0.035c-0.193-0.195-0.297-0.459-0.289-0.732
				c0.076-2.469-3.775-9.025-11.067-16.314c-7.266-7.266-13.672-11.066-16.244-11.066c-0.268,0.008-0.613-0.096-0.809-0.291
				c-0.268-0.27-0.379-0.686-0.258-1.045c0.123-0.361,0.42-0.639,0.797-0.689C21.5,23.523,30.968,14.27,32.751,12.43
				c0.002-0.004,0.07-0.072,0.072-0.076c1.969-1.965,4.608-3.049,7.432-3.049c3.604,0,7.307,1.719,10.424,4.836
				c2.842,2.842,4.5,6.096,4.791,9.412c0.283,3.223-0.783,6.221-3.002,8.441c-0.004,0.004-0.076,0.074-0.08,0.078
				c-1.84,1.785-11.094,11.264-12.605,22.572c-0.051,0.377-0.313,0.693-0.676,0.814C39.004,55.494,38.896,55.512,38.791,55.512z
				 M14.39,26.199c3.773,1.789,8.775,5.58,13.713,10.518c4.956,4.953,8.735,9.943,10.522,13.711
				c2.854-10.139,10.664-18.135,12.371-19.791c1.852-1.852,2.713-4.285,2.482-6.908c-0.25-2.842-1.707-5.668-4.213-8.174
				c-2.74-2.74-5.939-4.25-9.01-4.25c-2.324,0-4.402,0.852-6.014,2.463C32.539,15.523,24.542,23.344,14.39,26.199z"/>
		</g>
		<path fill="#F59B1E" d="M26.324,55.195c-1.77,0-3.434-0.691-4.686-1.943c-2.584-2.584-2.584-6.789,0-9.373
			c1.252-1.252,2.916-1.941,4.686-1.941c1.771,0,3.436,0.689,4.688,1.941s1.941,2.916,1.941,4.688c0,1.77-0.689,3.434-1.941,4.686
			c-0.137,0.137-0.275,0.266-0.42,0.387c-0.076,0.066-0.16,0.131-0.244,0.195C29.197,54.713,27.769,55.195,26.324,55.195z
			 M26.324,43.938c-1.234,0-2.396,0.48-3.271,1.355c-1.803,1.805-1.803,4.74,0,6.545c0.875,0.875,2.037,1.357,3.271,1.357
			c1.01,0,2.006-0.336,2.805-0.945l0.174-0.141c0.104-0.086,0.201-0.178,0.297-0.271c0.873-0.873,1.354-2.035,1.354-3.271
			s-0.48-2.398-1.355-3.273C28.722,44.42,27.56,43.938,26.324,43.938z"/>
		<path fill="#83AA8E" d="M26.326,27.639c-0.379,0-0.742-0.217-0.91-0.584c-0.229-0.502-0.008-1.096,0.494-1.324
			c0.059-0.027,5.818-2.682,8.989-6.049c3.604-3.828,7.461-3.881,9.049-3.014c0.484,0.264,0.662,0.871,0.396,1.355
			c-0.264,0.486-0.871,0.666-1.355,0.398c-0.861-0.469-3.727-0.459-6.635,2.631c-3.442,3.654-9.364,6.383-9.614,6.496
			C26.605,27.611,26.464,27.639,26.326,27.639z"/>
	</g>
	<g id="Layer_2">
	</g>
</g>
</svg>
