<?xml version="1.0" encoding="utf-8"?>
<!-- Generator: Adobe Illustrator 16.0.0, SVG Export Plug-In . SVG Version: 6.00 Build 0)  -->
<!DOCTYPE svg PUBLIC "-//W3C//DTD SVG 1.1//EN" "http://www.w3.org/Graphics/SVG/1.1/DTD/svg11.dtd">
<svg version="1.1" xmlns="http://www.w3.org/2000/svg" xmlns:xlink="http://www.w3.org/1999/xlink" x="0px" y="0px" width="64px"
	 height="64px" viewBox="0 0 64 64" enable-background="new 0 0 64 64" xml:space="preserve">
<g id="Layer_3" display="none">
	<rect x="-284.668" y="-208.866" display="inline" width="654" height="382"/>
</g>
<g id="Layer_4">
	<path fill="#FFFFFF" d="M8.501,37.761l10.708,8.747l2.709,0.333l3.916,1.625l4.875,1.084l4.459-0.292l5.125-1l4.333-1.667
		l3.417-2.291l3.791-3.167l2.441-2.719l-0.649-2.531l-3.333-3.125l-3.292-2.708c0,0-3.125-1.333-3.25-1.375
		s-5.583-1.584-5.708-1.584s-4.613-0.426-4.875-0.391s-7.959,0.516-7.959,0.516s-3.374,1.501-3.666,1.584s-3.459,1.541-3.584,1.583
		s-3.209,2.376-3.625,2.667s-3.458,2.832-3.583,2.916S8.501,37.761,8.501,37.761z"/>
	<circle fill="#F1F0F1" cx="32.009" cy="38.102" r="9.614"/>
</g>
<g id="Layer_1">
	<g>
		<path fill="#F59B1E" d="M55.032,38.762c-0.361,0-0.71-0.195-0.889-0.538c-0.227-0.431-5.793-10.603-22.595-10.603
			c-13.275,0-21.644,10.644-21.727,10.752c-0.337,0.437-0.967,0.516-1.402,0.182c-0.438-0.338-0.519-0.967-0.181-1.404
			c0.363-0.471,9.062-11.529,23.31-11.529c18.071,0,24.12,11.201,24.368,11.679c0.256,0.489,0.066,1.094-0.424,1.349
			C55.345,38.726,55.188,38.762,55.032,38.762z"/>
		<path fill="#B3B1B2" d="M32.513,49.9c-18.07,0-24.12-11.199-24.369-11.676c-0.255-0.49-0.064-1.094,0.425-1.35
			s1.093-0.065,1.349,0.424C10.146,37.729,15.711,47.9,32.513,47.9c13.275,0,21.644-10.643,21.727-10.75
			c0.338-0.437,0.967-0.516,1.402-0.181c0.438,0.339,0.518,0.966,0.181,1.403C55.459,38.844,46.761,49.9,32.513,49.9z"/>
		<path fill="#DE5740" d="M32.03,48.82c-6.096,0-11.057-4.961-11.057-11.059c0-6.1,4.961-11.062,11.057-11.062
			c6.101,0,11.063,4.962,11.063,11.062C43.094,43.859,38.131,48.82,32.03,48.82z M32.03,28.7c-4.994,0-9.057,4.065-9.057,9.062
			c0,4.995,4.063,9.059,9.057,9.059c4.998,0,9.063-4.063,9.063-9.059C41.094,32.766,37.028,28.7,32.03,28.7z"/>
		<g>
			<circle fill="#F1F0F1" cx="32.031" cy="37.762" r="4.394"/>
			<path fill="#83AA8E" d="M32.03,43.154c-2.974,0-5.393-2.42-5.393-5.393c0-2.975,2.419-5.395,5.393-5.395
				c2.975,0,5.395,2.42,5.395,5.395C37.425,40.734,35.005,43.154,32.03,43.154z M32.03,34.367c-1.871,0-3.393,1.522-3.393,3.395
				c0,1.87,1.521,3.393,3.393,3.393s3.395-1.522,3.395-3.393C35.425,35.89,33.901,34.367,32.03,34.367z"/>
		</g>
	</g>
	<g id="Layer_2">
	</g>
</g>
</svg>
