<?xml version="1.0" encoding="utf-8"?>
<!-- Generator: Adobe Illustrator 16.0.0, SVG Export Plug-In . SVG Version: 6.00 Build 0)  -->
<!DOCTYPE svg PUBLIC "-//W3C//DTD SVG 1.1//EN" "http://www.w3.org/Graphics/SVG/1.1/DTD/svg11.dtd">
<svg version="1.1" xmlns="http://www.w3.org/2000/svg" xmlns:xlink="http://www.w3.org/1999/xlink" x="0px" y="0px" width="64px"
	 height="64px" viewBox="0 0 64 64" enable-background="new 0 0 64 64" xml:space="preserve">
<g id="Layer_3" display="none">
	<rect x="-192.668" y="-9" display="inline" width="654" height="382"/>
</g>
<g id="Layer_4">
</g>
<g id="Layer_1">
	<g id="Layer_2">
	</g>
	<rect x="8.75" y="17.139" fill="#FFFFFF" width="46.334" height="32.778"/>
	<g>
		<g>
			<circle fill="#F1F0F1" cx="20.644" cy="26.967" r="4.142"/>
			<path fill="#B3B1B2" d="M20.644,32.107c-2.835,0-5.142-2.307-5.142-5.141c0-2.836,2.307-5.143,5.142-5.143
				c2.836,0,5.142,2.307,5.142,5.143C25.785,29.801,23.479,32.107,20.644,32.107z M20.644,23.824c-1.732,0-3.142,1.41-3.142,3.143
				s1.409,3.141,3.142,3.141s3.142-1.408,3.142-3.141S22.376,23.824,20.644,23.824z"/>
		</g>
		<g>
			<path fill="#F1F0F1" d="M14.135,38.391v5.627h13.017v-5.627c0-2.941-2.404-5.346-5.346-5.346H19.48
				C16.54,33.045,14.135,35.449,14.135,38.391z"/>
			<path fill="#B3B1B2" d="M27.151,45.018H14.135c-0.552,0-1-0.448-1-1v-5.627c0-3.499,2.847-6.346,6.346-6.346h2.325
				c3.5,0,6.346,2.847,6.346,6.346v5.627C28.151,44.569,27.704,45.018,27.151,45.018z M15.135,43.018h11.017v-4.627
				c0-2.396-1.949-4.346-4.346-4.346H19.48c-2.396,0-4.346,1.949-4.346,4.346V43.018z"/>
		</g>
		<path fill="#B3B1B2" d="M55.106,50.799h-46.5c-0.553,0-1-0.447-1-1V17.395c0-0.553,0.447-1,1-1h46.5c0.553,0,1,0.447,1,1v32.404
			C56.106,50.352,55.659,50.799,55.106,50.799z M9.606,48.799h44.5V18.395h-44.5V48.799z"/>
		<rect x="33.332" y="25.967" fill="#F59B1E" width="15.015" height="2"/>
		<rect x="33.332" y="32.598" fill="#B3B1B2" width="15.015" height="2"/>
		<rect x="33.332" y="39.229" fill="#83AA8E" width="15.015" height="2"/>
		<rect x="32.332" y="13.164" fill="#DE5740" width="2" height="7.949"/>
	</g>
</g>
</svg>
