<?xml version="1.0" encoding="utf-8"?>
<!-- Generator: Adobe Illustrator 16.0.0, SVG Export Plug-In . SVG Version: 6.00 Build 0)  -->
<!DOCTYPE svg PUBLIC "-//W3C//DTD SVG 1.1//EN" "http://www.w3.org/Graphics/SVG/1.1/DTD/svg11.dtd">
<svg version="1.1" xmlns="http://www.w3.org/2000/svg" xmlns:xlink="http://www.w3.org/1999/xlink" x="0px" y="0px" width="64px"
	 height="64px" viewBox="0 0 64 64" enable-background="new 0 0 64 64" xml:space="preserve">
<g id="Layer_3" display="none">
	<rect x="-102.001" y="-298.366" display="inline" width="654" height="382"/>
</g>
<g id="Layer_4">
	<polyline fill="#FFFFFF" points="15.333,14.332 15.333,55.386 49.752,55.386 49.752,28.379 49.752,14.514 15.333,14.514 	"/>
	<polygon fill="#F1F0F1" points="24.874,8.551 20.372,14.332 44.872,14.332 42.239,10.262 39.502,8.551 	"/>
	<polygon fill="#F1F0F1" points="38.085,40.886 38.252,53.719 49.335,40.886 	"/>
</g>
<g id="Layer_1">
	<polyline fill="none" stroke="#DD573E" stroke-width="2" stroke-miterlimit="10" points="20.23,14.514 24.874,8.551 40.745,8.551 
		45.796,14.332 	"/>
	
		<rect x="15.333" y="14.332" fill="none" stroke="#B3B0B2" stroke-width="2" stroke-miterlimit="10" width="34.898" height="40.719"/>
	
		<polygon fill="none" stroke="#B3B0B2" stroke-width="2" stroke-linecap="round" stroke-linejoin="round" stroke-miterlimit="10" points="
		50.231,40.77 38.099,54.355 38.099,40.77 	"/>
	<line fill="none" stroke="#82AA8D" stroke-width="2" stroke-miterlimit="10" x1="21.707" y1="22.068" x2="44.872" y2="22.068"/>
	<line fill="none" stroke="#B3B0B2" stroke-width="2" stroke-miterlimit="10" x1="21.707" y1="28.379" x2="44.872" y2="28.379"/>
	<line fill="none" stroke="#F39A20" stroke-width="2" stroke-miterlimit="10" x1="21.707" y1="34.691" x2="44.872" y2="34.691"/>
	<g id="Layer_2">
	</g>
</g>
</svg>
